<?xml version="1.0" encoding="UTF-8"?>
<!-- Created with Inkscape (http://www.inkscape.org/) -->
<svg width="14.811mm" height="14.811mm" version="1.1" viewBox="0 0 14.810531 14.810531" xmlns="http://www.w3.org/2000/svg" xmlns:cc="http://creativecommons.org/ns#" xmlns:dc="http://purl.org/dc/elements/1.1/" xmlns:rdf="http://www.w3.org/1999/02/22-rdf-syntax-ns#">
 <metadata>
  <rdf:RDF>
   <cc:Work rdf:about="">
    <dc:format>image/svg+xml</dc:format>
    <dc:type rdf:resource="http://purl.org/dc/dcmitype/StillImage"/>
    <dc:title/>
   </cc:Work>
  </rdf:RDF>
 </metadata>
 <g transform="translate(-149.08 -30.303)">
  <rect x="149.08" y="30.303" width="14.811" height="14.811" ry="7.4053" fill="#f03c2e"/>
  <g fill="#fff" stroke-width=".26458" style="font-feature-settings:normal;font-variant-caps:normal;font-variant-ligatures:normal;font-variant-numeric:normal" aria-label="ag">
   <path d="m156.23 39.846v-0.83608l-0.508-0.08467c-0.15875-0.02117-0.16934-0.04233-0.16934-0.21167v-2.5718c0-1.4817-0.64558-1.9156-2.2542-1.9156-0.97366 0-2.2754 0.20108-2.2754 1.6298l1.4922 0.127c0-0.635 0.26458-0.70908 0.77258-0.70908 0.65617 0 0.70908 0.33867 0.70908 0.83608v0.58208l-1.2171 0.08467c-1.3229 0.08467-1.9791 0.5715-1.9791 1.6298 0 0.65617 0.21166 1.5663 1.5452 1.5663 0.84667 0 1.3758-0.3175 1.778-0.70908l0.0529 0.01058 0.10583 0.5715zm-2.2331-1.397c-0.24341 0.17992-0.60325 0.381-0.96308 0.381-0.34925 0-0.60325-0.15875-0.60325-0.58208s0.22225-0.58208 0.84667-0.62442l0.71966-0.05292z" style="font-feature-settings:normal;font-variant-caps:normal;font-variant-ligatures:normal;font-variant-numeric:normal"/>
   <path d="m162.16 35.232v-0.89958h-2.0638c-0.24342-0.0635-0.51858-0.10583-0.97367-0.10583-1.6192 0-2.4236 0.83608-2.4236 2.0532 0 0.78317 0.39158 1.3335 0.91017 1.5875-0.254 0.23283-0.46567 0.43392-0.65617 0.635s-0.30692 0.41275-0.30692 0.64558c0 0.28575 0.11642 0.55033 0.46567 0.6985-0.37042 0.34925-0.58208 0.60325-0.58208 1.0795 0 0.83608 0.73025 1.3229 2.6458 1.3229 1.8415 0 2.9104-0.68792 2.9104-1.905 0-1.4076-1.0795-1.4605-2.9104-1.5769l-1.0372-0.0635 0.34925-0.56092c0.1905 0.05292 0.49742 0.09525 0.83609 0.09525 1.3335 0 2.2542-0.68792 2.2542-1.8627 0-0.48683-0.20109-0.8255-0.39159-1.0689zm-1.9791 0.99483c0 0.55033-0.40217 0.89958-0.99484 0.89958-0.6985 0-0.98425-0.35983-0.98425-0.87842 0-0.68792 0.43392-0.97367 1.016-0.97367 0.60325 0 0.96309 0.32808 0.96309 0.9525zm-0.58209 4.0111c0.508 0.03175 0.91017 0.05292 0.91017 0.39158 0 0.5715-0.83608 0.61383-1.4499 0.61383-0.74083 0-1.2806-0.127-1.2806-0.55033 0-0.21167 0.13758-0.39158 0.27517-0.56092z" style="font-feature-settings:normal;font-variant-caps:normal;font-variant-ligatures:normal;font-variant-numeric:normal"/>
  </g>
 </g>
</svg>
