<?xml version="1.0" encoding="UTF-8" standalone="no"?>
<!-- Created with Inkscape (http://www.inkscape.org/) -->

<svg
   xmlns:dc="http://purl.org/dc/elements/1.1/"
   xmlns:cc="http://creativecommons.org/ns#"
   xmlns:rdf="http://www.w3.org/1999/02/22-rdf-syntax-ns#"
   xmlns:svg="http://www.w3.org/2000/svg"
   xmlns="http://www.w3.org/2000/svg"
   version="1.1"
   width="543.99414"
   height="133.58577"
   id="svg3046">
  <defs
     id="defs3048" />
  <metadata
     id="metadata3051">
    <rdf:RDF>
      <cc:Work
         rdf:about="">
        <dc:format>image/svg+xml</dc:format>
        <dc:type
           rdf:resource="http://purl.org/dc/dcmitype/StillImage" />
        <dc:title></dc:title>
      </cc:Work>
    </rdf:RDF>
  </metadata>
  <g
     transform="translate(-102.15709,-476.64789)"
     id="layer1">
    <path
       d="m 214.93698,529.53539 -49.74501,-49.7389 c -2.8622,-2.8648 -7.5082,-2.8648 -10.374,0 l -10.329,10.33 13.102,13.102 c 3.0459,-1.0284 6.5371,-0.33888 8.9639,2.0884 2.4394,2.4424 3.124,5.9634 2.0698,9.0195 l 12.628,12.628 c 3.0551,-1.0528 6.58,-0.37262 9.0195,2.0712 3.4106,3.4096 3.4106,8.9345 0,12.345 -3.4111,3.4116 -8.936,3.4116 -12.349,0 -2.5645,-2.5665 -3.1988,-6.3345 -1.8999,-9.4942 l -11.777,-11.777 -0.001,30.991 c 0.8315,0.41162 1.6162,0.961 2.3091,1.6509 3.4096,3.4092 3.4096,8.9331 0,12.348 -3.4106,3.4091 -8.938,3.4091 -12.345,0 -3.4101,-3.4146 -3.4101,-8.9385 0,-12.348 0.84275,-0.84125 1.8179,-1.478 2.8584,-1.9048 v -31.279 c -1.041,-0.425 -2.015,-1.057 -2.859,-1.905 -2.583,-2.581 -3.2051,-6.372 -1.8804,-9.5439 l -12.916,-12.918 -34.106,34.105 c -2.8657,2.867 -2.8657,7.513 0,10.378 l 49.742,49.739 c 2.8638,2.8648 7.5082,2.8648 10.376,0 l 49.512,-49.504 c 2.86481,-2.8662 2.86481,-7.5136 0,-10.379"
       id="path3006"
       style="fill:#f03c2e" />
    <g
       id="text3008"
       style="font-size:108.98693085px;font-style:normal;font-variant:normal;font-weight:normal;font-stretch:normal;line-height:125%;letter-spacing:0px;word-spacing:0px;fill:#362701;fill-opacity:1;stroke:none;font-family:HelveticaNeueCyr;-inkscape-font-specification:HelveticaNeueCyr">
      <path
         d="m 294.80411,586.33795 0,-8.53189 -5.18393,-0.86399 c -0.7808,-0.0765 -1.27129,-0.24748 -1.47149,-0.51299 -0.2003,-0.26549 -0.2858,-0.81448 -0.25649,-1.64698 l 0,-26.24366 c 0.0675,-7.42936 -1.71453,-12.57729 -5.34593,-15.4438 -3.6315,-2.86641 -9.51742,-4.23439 -17.65778,-4.10395 -5.31445,-0.21819 -10.42638,0.7313 -15.3358,2.84846 -4.90945,2.11728 -7.53741,6.71171 -7.8839,13.78333 l 15.22781,1.29598 c 0.004,-3.13642 0.67047,-5.15239 1.99797,-6.04792 1.32746,-0.89545 3.28943,-1.29144 5.88593,-1.18799 3.23092,0.0383 5.27389,0.82579 6.12892,2.36247 0.85495,1.53678 1.22394,3.59325 1.10698,6.16942 l 0,5.93993 -12.41984,0.86398 c -6.74768,0.39603 -11.80111,1.92601 -15.1603,4.58994 -3.35922,2.66399 -5.03769,6.67794 -5.03544,12.04185 -0.1935,3.59546 0.73349,7.09641 2.78097,10.50286 2.04746,3.40646 6.3764,5.23344 12.98683,5.48093 4.27942,-0.0517 7.87037,-0.75824 10.77286,-2.11947 2.90243,-1.36123 5.3594,-3.06671 7.37091,-5.11643 l 0.53999,0.108 1.07998,5.83192 z M 272.0164,572.08214 c -1.26677,0.96525 -2.75625,1.84273 -4.46844,2.63246 -1.71226,0.78975 -3.49873,1.20824 -5.35943,1.25549 -1.81575,0.0225 -3.28723,-0.42749 -4.41444,-1.34999 -1.12726,-0.92248 -1.70775,-2.45245 -1.74148,-4.58994 -0.0383,-2.12845 0.60522,-3.67643 1.93047,-4.64394 1.32521,-0.96746 3.56168,-1.54346 6.70942,-1.72798 l 7.3439,-0.53999 z"
         id="path2986"
         style="font-size:108px;font-weight:bold;fill:#362701;font-family:Adelle Basic Rg;-inkscape-font-specification:Adelle Basic Rg Bold" />
      <path
         d="m 318.09377,586.33795 0.75599,-5.39993 0.53999,-0.108 c 1.68071,1.93723 3.85418,3.54371 6.52042,4.81944 2.66618,1.27573 5.78464,1.93722 9.35538,1.98447 6.75662,0.099 12.19704,-2.28597 16.32129,-7.1549 4.12414,-4.86893 6.24361,-12.81582 6.35842,-23.8407 -0.13956,-9.94033 -2.15553,-17.05923 -6.04792,-21.35672 -3.89251,-4.29739 -8.82444,-6.39436 -14.79581,-6.29092 -3.2715,0.007 -6.23246,0.5063 -8.88289,1.49848 -2.6505,0.99229 -5.12546,2.43677 -7.4249,4.33344 l -0.432,-0.10799 0,-29.91562 -22.24771,0 -1.18799,8.74789 5.93993,2.05197 c 0.53098,0.16207 0.89998,0.43207 1.10698,0.80999 0.20699,0.37807 0.30599,0.86406 0.297,1.45798 l 0,52.70332 c -0.0203,2.66848 -0.19576,5.35044 -0.52649,8.0459 -0.33076,2.69547 -0.69525,5.26944 -1.09349,7.7219 z m 2.37597,-40.82347 c 1.32746,-0.91345 2.91144,-1.75944 4.75194,-2.53797 1.84044,-0.77845 3.74842,-1.19244 5.72393,-1.24198 3.57966,0.13054 6.14012,1.70552 7.6814,4.72494 1.54118,3.01949 2.29267,6.70044 2.25447,11.04285 0.009,5.45396 -0.84604,9.7199 -2.56497,12.79784 -1.71902,3.07797 -4.35598,4.64395 -7.9109,4.69794 -1.91251,-0.0337 -3.73048,-0.45223 -5.45393,-1.25549 -1.7235,-0.80322 -3.21748,-1.78871 -4.48194,-2.95646 z"
         id="path2988"
         style="font-size:108px;font-weight:bold;fill:#362701;font-family:Adelle Basic Rg;-inkscape-font-specification:Adelle Basic Rg Bold" />
      <path
         d="m 420.7338,586.33795 0,-8.53189 -5.18394,-0.86399 c -0.78079,-0.0765 -1.27129,-0.24748 -1.47148,-0.51299 -0.2003,-0.26549 -0.2858,-0.81448 -0.25649,-1.64698 l 0,-26.24366 c 0.0674,-7.42936 -1.71453,-12.57729 -5.34594,-15.4438 -3.63149,-2.86641 -9.51741,-4.23439 -17.65777,-4.10395 -5.31445,-0.21819 -10.42638,0.7313 -15.3358,2.84846 -4.90945,2.11728 -7.53741,6.71171 -7.8839,13.78333 l 15.2278,1.29598 c 0.004,-3.13642 0.67047,-5.15239 1.99798,-6.04792 1.32746,-0.89545 3.28943,-1.29144 5.88592,-1.18799 3.23093,0.0383 5.2739,0.82579 6.12892,2.36247 0.85496,1.53678 1.22395,3.59325 1.10699,6.16942 l 0,5.93993 -12.41984,0.86398 c -6.74768,0.39603 -11.80111,1.92601 -15.16031,4.58994 -3.35921,2.66399 -5.03769,6.67794 -5.03543,12.04185 -0.1935,3.59546 0.73349,7.09641 2.78097,10.50286 2.04746,3.40646 6.3764,5.23344 12.98683,5.48093 4.27942,-0.0517 7.87037,-0.75824 10.77286,-2.11947 2.90243,-1.36123 5.3594,-3.06671 7.3709,-5.11643 l 0.54,0.108 1.07998,5.83192 z m -22.78771,-14.25581 c -1.26677,0.96525 -2.75625,1.84273 -4.46844,2.63246 -1.71226,0.78975 -3.49874,1.20824 -5.35943,1.25549 -1.81575,0.0225 -3.28723,-0.42749 -4.41445,-1.34999 -1.12725,-0.92248 -1.70775,-2.45245 -1.74147,-4.58994 -0.0383,-2.12845 0.60522,-3.67643 1.93047,-4.64394 1.32521,-0.96746 3.56168,-1.54346 6.70941,-1.72798 l 7.34391,-0.53999 z"
         id="path2990"
         style="font-size:108px;font-weight:bold;fill:#362701;font-family:Adelle Basic Rg;-inkscape-font-specification:Adelle Basic Rg Bold" />
      <path
         d="m 459.79126,609.23366 0,-8.53189 -11.23186,-0.97199 c -0.78077,-0.0293 -1.27126,-0.18676 -1.47148,-0.4725 -0.20028,-0.28576 -0.28577,-0.84825 -0.2565,-1.68747 l 0,-15.4438 c 2.27695,1.83597 4.71591,3.21295 7.31691,4.13094 2.60093,0.91799 5.30989,1.37698 8.12689,1.37698 5.88455,-0.14266 10.44715,-1.86131 13.68782,-5.15593 3.24057,-3.29462 5.49121,-7.30923 6.75192,-12.04385 1.26059,-4.73458 1.86324,-9.33318 1.80798,-13.79582 -0.10806,-9.94033 -2.05204,-17.05923 -5.83193,-21.35672 -3.78,-4.29739 -8.74793,-6.39436 -14.90381,-6.29092 -3.13425,0.0203 -6.3157,0.6278 -9.54438,1.82248 -3.22873,1.19479 -6.16719,2.85526 -8.81538,4.98143 l -0.53999,-0.21599 -0.97199,-5.50793 -19.00776,0 -1.18798,8.74788 5.72393,2.05198 c 0.53098,0.16204 0.89997,0.43203 1.10698,0.80999 0.20699,0.37803 0.30599,0.86403 0.297,1.45798 l 0,54.5393 c 0.0135,0.78972 -0.12151,1.34321 -0.405,1.66047 -0.2835,0.31724 -0.7965,0.51973 -1.53898,0.6075 l -4.31994,0.64799 0,8.63989 z m -12.74384,-63.50319 c 1.22396,-0.87069 2.82593,-1.72118 4.80594,-2.55147 1.97994,-0.83019 4.12191,-1.27568 6.42591,-1.33648 2.74493,-0.0427 4.9499,1.17678 6.61492,3.65846 1.66493,2.48175 2.51992,6.4822 2.56497,12.00134 0.0247,5.35946 -0.78079,9.5984 -2.41647,12.71684 -1.63577,3.11847 -4.25024,4.71145 -7.8434,4.77894 -2.02276,-0.0427 -3.91723,-0.47023 -5.68343,-1.28249 -1.76625,-0.81222 -3.25573,-1.75271 -4.46844,-2.82146 z"
         id="path2992"
         style="font-size:108px;font-weight:bold;fill:#362701;font-family:Adelle Basic Rg;-inkscape-font-specification:Adelle Basic Rg Bold" />
      <path
         d="m 565.33206,557.28633 0,-8.63989 -33.15557,0 -1.51198,9.71987 11.98785,0 0,14.14782 c 0.002,0.68175 -0.1373,1.15425 -0.4185,1.41748 -0.2813,0.26326 -0.71779,0.43876 -1.30948,0.52649 -1.27804,0.22051 -2.71802,0.40051 -4.31995,0.54 -1.60202,0.13951 -3.15,0.21151 -4.64394,0.21599 -7.71518,-0.0697 -13.4796,-2.5762 -17.29327,-7.5194 -3.81373,-4.94316 -5.7172,-11.90457 -5.71043,-20.88423 0.0562,-8.56559 2.0227,-15.275 5.89943,-20.12824 3.87667,-4.85313 9.32609,-7.32359 16.34828,-7.4114 1.70994,0.0113 3.44691,0.15081 5.21094,0.41849 1.76393,0.26781 3.3389,0.59631 4.72494,0.98549 0.47694,0.0901 0.84593,0.28806 1.10698,0.59399 0.26094,0.30606 0.46794,0.82805 0.62099,1.56598 l 1.61998,9.71987 11.98785,0.86399 0,-20.41173 c -3.41327,-2.1509 -7.33272,-3.73488 -11.75835,-4.75194 -4.42575,-1.01691 -8.64219,-1.52091 -12.64934,-1.51198 -13.59435,0.23407 -23.74621,4.05902 -30.45561,11.47485 -6.70942,7.41596 -10.05737,17.01883 -10.04387,28.80863 -0.19125,11.85062 2.72921,21.52099 8.76139,29.01112 6.03216,7.49016 16.32351,11.35561 30.8741,11.59635 4.57415,0.027 9.33058,-0.35099 14.26932,-1.13398 4.93862,-0.78299 9.50606,-2.13297 13.70232,-4.04995 l 0,-23.2197 c -0.009,-0.52872 0.11693,-0.90221 0.378,-1.12049 0.26092,-0.21822 0.71092,-0.34871 1.34998,-0.39149 z"
         id="path2994"
         style="font-size:108px;font-weight:bold;fill:#362701;font-family:Adelle Basic Rg;-inkscape-font-specification:Adelle Basic Rg Bold" />
      <path
         d="m 592.2956,511.71091 c -0.018,-3.08913 -0.87302,-5.4426 -2.56497,-7.06041 -1.692,-1.61765 -4.11297,-2.43213 -7.26291,-2.44347 -3.09822,0.0113 -5.48769,0.82583 -7.16841,2.44348 -1.68073,1.61781 -2.53122,3.97127 -2.55146,7.0604 0.0202,3.09828 0.87073,5.48775 2.55147,7.16841 1.68072,1.68079 4.07018,2.53128 7.1684,2.55147 3.14994,-0.0202 5.57091,-0.87068 7.26291,-2.55147 1.69195,-1.68066 2.54694,-4.07013 2.56497,-7.16841 z m 7.01991,74.62704 0,-8.53189 -5.50793,-0.75599 c -0.78077,-0.0765 -1.27126,-0.24749 -1.47149,-0.51299 -0.20027,-0.26549 -0.28577,-0.81448 -0.25649,-1.64698 l 0,-44.81942 -22.35571,0 -1.18799,8.74788 5.83193,2.05198 c 0.53098,0.16204 0.89998,0.43203 1.10698,0.80999 0.20699,0.37803 0.30599,0.86403 0.297,1.45798 l 0,31.75159 c 0.0225,0.78525 -0.0765,1.32074 -0.297,1.60648 -0.2205,0.28575 -0.6975,0.47025 -1.43098,0.55349 l -5.50793,0.75599 0,8.53189 z"
         id="path2996"
         style="font-size:108px;font-weight:bold;fill:#362701;font-family:Adelle Basic Rg;-inkscape-font-specification:Adelle Basic Rg Bold" />
      <path
         d="m 642.23527,573.81011 c -1.30952,0.49726 -2.7135,0.90675 -4.21195,1.22848 -1.49851,0.32176 -3.01049,0.48826 -4.53594,0.4995 -2.85749,0.0293 -4.81047,-0.65023 -5.85893,-2.03847 -1.04851,-1.38822 -1.5435,-3.66069 -1.48497,-6.81742 l 0,-25.81166 16.09179,0 0,-10.79986 -15.2278,0 c -0.41402,0.002 -0.66602,-0.0832 -0.756,-0.2565 -0.09,-0.17319 -0.12602,-0.44769 -0.10799,-0.82349 l 0,-15.3358 -10.25987,0 c -0.52876,5.81624 -1.90124,10.08668 -4.11745,12.81133 -2.21623,2.72477 -5.66768,4.32225 -10.35437,4.79244 l 0,9.61188 7.55991,0 c 0.41398,0.005 0.66598,0.10354 0.75599,0.29699 0.09,0.19355 0.12599,0.45454 0.108,0.78299 l 0,28.29564 c -0.0653,6.06368 1.28022,10.48712 4.03644,13.27033 2.7562,2.78321 7.31464,4.15569 13.67533,4.11744 3.13643,-0.0382 6.25938,-0.47474 9.36888,-1.30948 3.10942,-0.83474 5.85438,-1.83822 8.23489,-3.01046 z"
         id="path2998"
         style="font-size:108px;font-weight:bold;fill:#362701;font-family:Adelle Basic Rg;-inkscape-font-specification:Adelle Basic Rg Bold" />
    </g>
  </g>
</svg>
