<?xml version="1.0" encoding="UTF-8"?>
<!-- Created with Inkscape (http://www.inkscape.org/) -->
<svg width="600.35" height="424.59" version="1.1" viewBox="0 0 600.35 424.59" xml:space="preserve" xmlns="http://www.w3.org/2000/svg" xmlns:cc="http://creativecommons.org/ns#" xmlns:dc="http://purl.org/dc/elements/1.1/" xmlns:rdf="http://www.w3.org/1999/02/22-rdf-syntax-ns#"><metadata><rdf:RDF><cc:Work rdf:about=""><dc:format>image/svg+xml</dc:format><dc:type rdf:resource="http://purl.org/dc/dcmitype/StillImage"/></cc:Work></rdf:RDF></metadata><defs><clipPath id="clipPath4477"><path d="m0 500h500v-500h-500z"/></clipPath></defs><g transform="matrix(1.3333 0 0 -1.3333 .17399 578.96)"><g transform="translate(-28.007 9.8665)"><g clip-path="url(#clipPath4477)"><g fill="#005bbb"><path d="m469.2 320.6c0.929 0.571 1.442 1.562 1.442 2.579 0 0.526-0.137 1.059-0.426 1.543-0.846 1.419-2.676 1.897-4.107 1.07 0 0-42.52-24.549-63.573-36.704 14.864 9.02 50.99 30.941 50.99 30.941 0.936 0.568 1.454 1.564 1.454 2.586 0 0.523-0.135 1.053-0.421 1.535-0.845 1.426-2.678 1.906-4.111 1.078 0 0-53.905-31.122-102.91-59.415h32.391c41.123 25.238 89.272 54.787 89.272 54.787"/><path d="m457.83 266.53c-0.849 1.414-2.674 1.887-4.102 1.062 0 0-1.249-0.72-3.076-1.776h7.486c-0.071 0.245-0.171 0.485-0.308 0.714"/><path d="m468.38 284.88c0.935 0.569 1.452 1.564 1.452 2.585 0 0.524-0.136 1.055-0.422 1.537-0.844 1.424-2.676 1.904-4.11 1.077 0 0-14.116-8.15-15.832-9.141 0.972 0.587 11.667 7.054 11.667 7.054 0.938 0.568 1.459 1.565 1.459 2.588 0 0.523-0.136 1.053-0.421 1.534-0.842 1.427-2.677 1.908-4.11 1.08 0 0-22.291-12.869-47.418-27.377h26.381c10.583 6.435 31.354 19.063 31.354 19.063"/><path d="m461.78 273.02c0.935 0.568 1.451 1.563 1.451 2.584 0 0.525-0.136 1.055-0.421 1.538-0.845 1.423-2.677 1.903-4.11 1.076 0 0-13.886-8.016-21.479-12.401h12.718c6.098 3.71 11.841 7.203 11.841 7.203"/><path d="m451.22 329.83c0.926 0.57 1.438 1.561 1.438 2.576 0 0.528-0.137 1.06-0.427 1.544-0.845 1.42-2.675 1.896-4.105 1.07 0 0-29.934-17.281-38.468-22.209 9.431 5.696 40.537 24.487 40.537 24.487 0.94 0.567 1.46 1.566 1.46 2.589 0 0.522-0.135 1.052-0.42 1.534-0.842 1.427-2.677 1.908-4.111 1.08 0 0-48.662-28.094-79.803-46.073 40.121 24.451 94.859 57.808 94.859 57.808 0.932 0.57 1.449 1.564 1.449 2.584 0 0.524-0.137 1.055-0.424 1.538-0.844 1.424-2.676 1.902-4.108 1.076 0 0-31.779-18.348-40.726-23.514 3.795 2.286 25.134 15.138 25.134 15.138 0.942 0.567 1.464 1.565 1.464 2.59 0 0.522-0.135 1.051-0.419 1.532-0.842 1.428-2.677 1.91-4.113 1.082 0 0-36.508-21.077-49.88-28.798 17.929 10.833 59.271 35.811 59.271 35.811 0.938 0.568 1.459 1.566 1.459 2.589 0 0.522-0.135 1.052-0.422 1.534-0.842 1.427-2.676 1.908-4.11 1.08 0 0-67.366-38.894-128.61-74.251 61.667 37.783 128.99 79.032 128.99 79.032 0.93 0.57 1.444 1.561 1.444 2.578 0 0.527-0.138 1.059-0.426 1.543-0.844 1.42-2.675 1.898-4.107 1.071 0 0-12.219-7.054-13.217-7.631 2e-3 1e-3 0.616 0.37 0.616 0.37 0.946 0.566 1.47 1.567 1.47 2.595 0 0.52-0.135 1.048-0.418 1.528-0.841 1.43-2.678 1.915-4.115 1.085 0 0-61.82-35.691-114.79-66.272 59.919 36.684 126.28 77.313 126.28 77.313 0.931 0.569 1.444 1.561 1.444 2.579 0 0.525-0.136 1.057-0.424 1.542-0.845 1.42-2.675 1.898-4.107 1.072 0 0-67.196-38.796-127.5-73.614 49.327 30.186 108.45 66.365 108.45 66.365 0.93 0.569 1.445 1.562 1.445 2.58 0 0.525-0.137 1.057-0.425 1.541-0.846 1.421-2.676 1.899-4.108 1.073 0 0-61.807-35.685-113.72-65.658 53.129 32.475 115.4 70.537 115.4 70.537 0.931 0.569 1.447 1.562 1.447 2.58 0 0.525-0.137 1.057-0.424 1.54-0.846 1.422-2.676 1.901-4.109 1.074 0 0-58.458-33.751-101.02-58.322 34.612 21.029 87.033 52.879 87.033 52.879 0.934 0.567 1.452 1.564 1.452 2.585 0 0.523-0.137 1.053-0.423 1.537-0.842 1.423-2.676 1.904-4.11 1.076 0 0-59.881-34.572-107.47-62.05 44.405 27.084 101.71 62.033 101.71 62.033 0.933 0.568 1.449 1.562 1.449 2.581 0 0.525-0.137 1.056-0.424 1.539-0.659 1.113-1.922 1.626-3.127 1.412 0.713 0.584 1.122 1.434 1.122 2.32 0 0.52-0.134 1.047-0.417 1.529-0.841 1.43-2.678 1.913-4.114 1.084 0 0-90.797-52.421-178.86-103.27 22.945 14.421 55.716 35.018 55.716 35.018 0.912 0.572 1.414 1.555 1.414 2.56 0 0.532-0.14 1.069-0.433 1.557-0.85 1.41-2.673 1.88-4.099 1.057 0 0-24.517-14.156-34.923-20.164 6.828 4.253 26.917 16.762 26.917 16.762 0.918 0.573 1.425 1.559 1.425 2.568 0 0.53-0.14 1.066-0.432 1.552-0.848 1.414-2.673 1.886-4.101 1.062 0 0-32.183-18.581-54.926-31.712 19.397 12.243 48.803 30.803 48.803 30.803 0.909 0.574 1.409 1.554 1.409 2.559 0 0.531-0.141 1.07-0.436 1.559-0.851 1.408-2.672 1.877-4.097 1.053 0 0-36.979-21.349-70.399-40.644 32.776 21.036 68.926 44.241 68.926 44.241 0.897 0.576 1.391 1.549 1.391 2.545 0 0.536-0.143 1.078-0.443 1.569-0.852 1.402-2.67 1.865-4.09 1.045 0 0-33.049-19.081-58.165-33.582 28.468 18.049 63.435 40.217 63.435 40.217 0.907 0.575 1.405 1.553 1.405 2.554 0 0.533-0.142 1.073-0.438 1.561-0.851 1.407-2.671 1.875-4.095 1.053 0 0-37.723-21.779-72.993-42.143 29.701 19.166 63.002 40.658 63.002 40.658 0.894 0.576 1.383 1.547 1.383 2.54 0 0.538-0.143 1.081-0.443 1.572-0.559 0.917-1.532 1.426-2.534 1.441 0.225 0.432 0.351 0.911 0.351 1.4 0 0.524-0.138 1.057-0.425 1.54-0.696 1.169-2.055 1.694-3.314 1.386 0.205 0.126 4.246 2.623 4.246 2.623 0.922 0.572 1.433 1.561 1.433 2.574 0 0.527-0.138 1.062-0.428 1.546-0.847 1.418-2.675 1.893-4.105 1.067 0 0-39.681-22.91-77.899-44.976 29.982 19.412 63.122 40.869 63.122 40.869 0.893 0.576 1.38 1.547 1.38 2.538 0 0.539-0.144 1.083-0.444 1.575-0.855 1.397-2.669 1.859-4.089 1.038 0 0-23.877-13.785-36.191-20.895 16.43 10.388 43.338 27.398 43.338 27.398 0.908 0.575 1.407 1.554 1.407 2.557 0 0.532-0.142 1.071-0.436 1.56-0.851 1.408-2.672 1.876-4.097 1.053 0 0-4.924-2.843-5.251-3.032 0.46 0.548 0.72 1.232 0.72 1.937 0 0.528-0.139 1.063-0.43 1.549-0.847 1.415-2.674 1.889-4.103 1.063 0 0-32.664-18.859-61.861-35.715 27.768 18.026 59.044 38.33 59.044 38.33 0.889 0.577 1.375 1.546 1.375 2.536 0 0.539-0.143 1.084-0.445 1.575-0.856 1.397-2.668 1.857-4.087 1.039 0 0-25.537-14.743-42.783-24.701 10.29 6.612 30.045 19.306 30.045 19.306 0.897 0.576 1.389 1.549 1.389 2.544 0 0.537-0.143 1.08-0.442 1.57-0.854 1.401-2.67 1.865-4.09 1.044 0 0-16.334-9.43-23.361-13.487 4.128 2.67 16.789 10.862 16.789 10.862 0.893 0.577 1.381 1.548 1.381 2.54 0 0.538-0.143 1.082-0.444 1.573-0.855 1.398-2.669 1.859-4.088 1.041 0 0-21.802-12.587-40.336-23.29 12.14 8.232 29.122 19.747 29.122 19.747 0.86 0.583 1.327 1.533 1.327 2.503 0 0.549-0.149 1.104-0.462 1.602-0.864 1.377-2.662 1.825-4.07 1.012 0 0-22.425-12.946-44.508-25.696 13.232 9.49 28.557 20.481 28.557 20.481 0.82 0.59 1.261 1.516 1.261 2.458 0 0.562-0.157 1.13-0.483 1.636-0.873 1.353-2.655 1.784-4.049 0.979 0 0-12.786-7.383-24.872-14.36 4.596 3.664 11.656 9.296 11.656 9.296 0.744 0.594 1.138 1.473 1.138 2.364 0 0.587-0.173 1.181-0.526 1.7-0.891 1.306-2.638 1.704-4.007 0.914l-30.838-17.804c-0.97-0.561-1.512-1.576-1.512-2.62 0-0.512 0.131-1.032 0.406-1.508 0.54-0.935 1.508-1.461 2.513-1.497-6.207-4.951-14.107-11.25-14.107-11.25-0.744-0.594-1.136-1.474-1.136-2.364 0-0.588 0.171-1.181 0.524-1.701 0.892-1.305 2.638-1.705 4.008-0.914 0 0 5.392 3.113 6.74 3.892-13.232-9.49-28.557-20.481-28.557-20.481-0.82-0.588-1.261-1.515-1.261-2.458 0-0.562 0.158-1.13 0.483-1.636 0.873-1.353 2.655-1.784 4.05-0.978 0 0 15.511 8.955 25.116 14.5-12.145-8.234-29.131-19.75-29.131-19.75-0.859-0.583-1.325-1.533-1.325-2.503 0-0.548 0.149-1.104 0.462-1.601 0.862-1.379 2.662-1.826 4.07-1.013 0 0 8.01 4.625 9.465 5.465-4.138-2.678-16.812-10.877-16.812-10.877-0.892-0.578-1.381-1.548-1.381-2.54 0-0.538 0.144-1.082 0.445-1.574 0.854-1.397 2.668-1.86 4.088-1.04 0 0 12.801 7.391 16.568 9.566-10.264-6.596-30.001-19.278-30.001-19.278-0.898-0.575-1.39-1.548-1.39-2.544 0-0.536 0.144-1.079 0.443-1.57 0.853-1.401 2.669-1.864 4.09-1.043 0 0 28.871 16.668 52.642 30.391-27.788-18.038-59.073-38.347-59.073-38.347-0.889-0.578-1.375-1.547-1.375-2.538 0-0.539 0.144-1.083 0.446-1.575 0.855-1.397 2.668-1.857 4.086-1.038 0 0 3.888 2.244 4.09 2.361-0.46-0.549-0.722-1.232-0.722-1.937 0-0.528 0.14-1.063 0.43-1.549 0.848-1.416 2.675-1.889 4.103-1.064 0 0 22.34 12.898 32.962 19.03-16.423-10.382-43.325-27.39-43.325-27.39-0.908-0.574-1.408-1.554-1.408-2.556 0-0.533 0.141-1.072 0.436-1.561 0.851-1.408 2.671-1.875 4.096-1.054 0 0 33.651 19.429 63.831 36.854-29.98-19.41-63.119-40.865-63.119-40.865-0.891-0.577-1.38-1.548-1.38-2.539 0-0.538 0.144-1.082 0.445-1.574 0.856-1.398 2.668-1.859 4.088-1.04 0 0 6.003 3.466 6.447 3.723-5e-3 -3e-3 -0.649-0.401-0.649-0.401-0.924-0.572-1.433-1.56-1.433-2.574 0-0.527 0.138-1.061 0.428-1.546 0.394-0.659 1.004-1.098 1.682-1.314-0.104-0.064-3.032-1.854-3.032-1.854-0.93-0.57-1.445-1.563-1.445-2.581 0-0.525 0.138-1.057 0.425-1.541 0.845-1.422 2.676-1.9 4.108-1.073 0 0 36.014 20.794 68.977 39.824-29.707-19.171-63.012-40.663-63.012-40.663-0.894-0.577-1.384-1.548-1.384-2.541 0-0.537 0.143-1.081 0.443-1.573 0.328-0.536 0.799-0.934 1.334-1.176h2.492c0.089 0.041 0.177 0.085 0.263 0.135 0 0 30.688 17.717 52.411 30.259-16.485-10.451-35.156-22.287-47.943-30.394h13.597c13.577 7.839 30.776 17.768 47.287 27.301-14.687-9.427-30.049-19.286-42.536-27.301h15.029c3.73 2.153 7.356 4.246 10.673 6.161-3.057-1.929-6.363-4.015-9.763-6.161h58.488c5.415 3.126 10.718 6.188 15.747 9.091-4.846-2.954-9.845-6.003-14.906-9.091h33.622c5.23 3.019 10.45 6.034 15.613 9.014-4.858-2.969-9.792-5.985-14.747-9.014h17.993c0.768 0.443 1.534 0.886 2.299 1.327-0.721-0.441-1.444-0.884-2.169-1.327h18.453c2.508 1.449 5.011 2.893 7.503 4.333-2.349-1.44-4.71-2.884-7.076-4.333h117.54c49.731 30.601 104.02 64.011 104.02 64.011"/><path d="m465.58 300.86c0.928 0.57 1.439 1.562 1.439 2.577 0 0.527-0.136 1.059-0.425 1.544-0.846 1.42-2.676 1.897-4.107 1.071 0 0-9.976-5.761-10.776-6.223 0.56 0.338 8.916 5.383 8.916 5.383 0.939 0.567 1.461 1.565 1.461 2.588 0 0.523-0.136 1.052-0.421 1.534-0.842 1.427-2.677 1.909-4.112 1.08 0 0-42.882-24.758-77.251-44.6h28.242c29.911 18.38 57.034 35.046 57.034 35.046"/></g><g fill="#ffd500"><path d="m104.49 200.78c-0.93-0.569-1.445-1.562-1.445-2.58 0-0.524 0.138-1.057 0.425-1.541 0.845-1.422 2.676-1.899 4.108-1.072 0 0 62.381 36.017 121.65 70.235h-18.453c-48.877-29.911-106.29-65.042-106.29-65.042"/><path d="m59.817 265.82h-2.492c0.773-0.348 1.681-0.369 2.492 0"/><path d="m49.088 256.02c-0.906-0.575-1.404-1.553-1.404-2.555 0-0.532 0.142-1.072 0.437-1.561 0.852-1.407 2.672-1.875 4.096-1.052 0 0 10.679 6.166 25.928 14.969h-13.597c-9.278-5.882-15.46-9.801-15.46-9.801"/><path d="m91.985 204.28c-0.932-0.569-1.447-1.562-1.447-2.58 0-0.525 0.137-1.057 0.424-1.541 0.846-1.422 2.676-1.9 4.108-1.073 0 0 61.453 35.479 115.58 66.727h-17.993c-49.258-30.109-100.67-61.533-100.67-61.533"/><path d="m347.53 265.82c-1.824-1.053-3.643-2.104-5.451-3.147 1.697 1.045 3.403 2.094 5.114 3.147h-117.54c-57.934-35.469-119.18-72.968-119.18-72.968-0.93-0.57-1.444-1.563-1.444-2.579 0-0.527 0.136-1.059 0.424-1.543 0.73-1.227 2.191-1.736 3.499-1.324-0.17-0.101-5.263-3.153-5.263-3.153-0.944-0.565-1.468-1.566-1.468-2.594 0-0.521 0.134-1.049 0.417-1.529 0.841-1.43 2.678-1.914 4.114-1.085 0 0 70.44 40.669 135.87 78.444-61.644-37.769-128.96-79.01-128.96-79.01-0.929-0.57-1.442-1.561-1.442-2.579 0-0.526 0.137-1.057 0.424-1.542 0.845-1.42 2.676-1.899 4.108-1.071 0 0 44.874 25.907 66.095 38.159-17.912-10.822-59.239-35.791-59.239-35.791-0.938-0.568-1.458-1.565-1.458-2.589 0-0.522 0.135-1.051 0.42-1.534 0.842-1.426 2.677-1.908 4.111-1.079 0 0 24.42 14.098 29.439 16.995-3.816-2.298-25.206-15.179-25.206-15.179-0.94-0.567-1.462-1.566-1.462-2.591 0-0.523 0.135-1.051 0.419-1.532 0.842-1.428 2.677-1.911 4.112-1.082 0 0 58.535 33.794 103.58 59.802-40.103-24.44-94.829-57.792-94.829-57.792-0.933-0.568-1.45-1.563-1.45-2.583 0-0.524 0.136-1.054 0.423-1.539 0.844-1.423 2.676-1.901 4.109-1.074 0 0 28.457 16.43 36.087 20.834-9.418-5.689-40.507-24.469-40.507-24.469-0.94-0.566-1.46-1.565-1.46-2.588 0-0.522 0.136-1.051 0.421-1.534 0.842-1.427 2.677-1.908 4.112-1.08 0 0 61.184 35.324 116.07 67.011-51.055-31.418-109.16-67.17-109.16-67.17-0.925-0.57-1.437-1.562-1.437-2.576 0-0.527 0.138-1.061 0.427-1.545 0.846-1.419 2.674-1.896 4.106-1.07 0 0 38.337 22.135 55.05 31.785-14.874-9.026-51.007-30.953-51.007-30.953-0.937-0.567-1.455-1.563-1.455-2.585 0-0.524 0.137-1.053 0.422-1.537 0.844-1.424 2.677-1.905 4.11-1.077 0 0 58.693 33.887 108.6 62.701-42.274-25.944-95.317-58.497-95.317-58.497-0.929-0.569-1.442-1.561-1.442-2.577 0-0.526 0.138-1.059 0.426-1.544 0.846-1.419 2.676-1.896 4.107-1.07 0 0 9.577 5.528 10.313 5.953-0.575-0.346-9.02-5.444-9.02-5.444-0.938-0.567-1.459-1.565-1.459-2.589 0-0.523 0.135-1.052 0.42-1.533 0.842-1.427 2.677-1.909 4.112-1.08 0 0 50.063 28.904 88.161 50.9-39.163-24.066-89.578-55.044-89.578-55.044-0.926-0.57-1.439-1.56-1.439-2.577 0-0.526 0.137-1.059 0.426-1.543 0.846-1.42 2.675-1.897 4.107-1.07 0 0 12.283 7.091 13.563 7.831-0.966-0.583-11.633-7.034-11.633-7.034-0.94-0.567-1.46-1.564-1.46-2.587 0-0.524 0.137-1.053 0.421-1.535 0.843-1.426 2.677-1.908 4.112-1.08 0 0 32.445 18.733 44.512 25.701-8.134-4.947-35.126-21.358-35.126-21.358-0.934-0.568-1.451-1.562-1.451-2.583 0-0.525 0.135-1.056 0.422-1.538 0.843-1.424 2.676-1.904 4.109-1.076 0 0 22.156 12.792 27.384 15.809-4.549-2.767-25.187-15.319-25.187-15.319-0.934-0.568-1.451-1.563-1.451-2.585 0-0.523 0.136-1.055 0.422-1.538 0.845-1.423 2.676-1.903 4.111-1.074 0 0 47.41 27.372 87.552 50.548-31.349-19.508-72.315-44.999-72.315-44.999-0.919-0.573-1.426-1.558-1.426-2.568 0-0.529 0.14-1.065 0.431-1.552 0.848-1.414 2.674-1.886 4.102-1.063 0 0 25.365 14.646 34.329 19.82-8.596-5.287-33.263-20.458-33.263-20.458-0.927-0.569-1.438-1.56-1.438-2.576 0-0.526 0.137-1.059 0.425-1.544 0.846-1.42 2.676-1.895 4.106-1.07 0 0 44.404 25.636 84.566 48.822-32.347-20.407-70.872-44.711-70.872-44.711-0.909-0.573-1.409-1.553-1.409-2.558 0-0.532 0.141-1.071 0.435-1.559 0.851-1.408 2.672-1.877 4.097-1.056 0 0 36.895 21.303 67.804 39.148-18.128-11.502-45.712-29.005-45.712-29.005-0.906-0.574-1.404-1.553-1.404-2.555 0-0.532 0.142-1.073 0.438-1.561 0.852-1.407 2.671-1.873 4.096-1.051 0 0 35.729 20.629 71.118 41.06-12.526-8.343-30.904-20.585-30.904-20.585-0.873-0.581-1.347-1.54-1.347-2.518 0-0.544 0.147-1.095 0.455-1.59 0.86-1.387 2.665-1.839 4.077-1.023l90.508 52.253c1.444 0.835 1.94 2.683 1.104 4.128-0.833 1.445-2.68 1.939-4.127 1.105 0 0-7.259-4.191-8.805-5.084 12.539 8.353 30.926 20.6 30.926 20.6 0.871 0.581 1.346 1.539 1.346 2.516 0 0.546-0.147 1.096-0.455 1.591-0.86 1.387-2.664 1.839-4.078 1.024 0 0-19.476-11.246-27.693-15.99 18.118 11.496 45.698 28.997 45.698 28.997 0.905 0.575 1.403 1.553 1.403 2.553 0 0.534-0.141 1.073-0.437 1.563-0.852 1.406-2.672 1.873-4.096 1.051 0 0-34.128-19.704-59.526-34.368 32.316 20.389 70.825 44.683 70.825 44.683 0.909 0.574 1.409 1.553 1.409 2.557 0 0.533-0.141 1.072-0.436 1.559-0.849 1.409-2.67 1.878-4.096 1.056 0 0-22.83-13.181-29.917-17.273 8.603 5.292 33.28 20.469 33.28 20.469 0.927 0.57 1.439 1.561 1.439 2.576 0 0.527-0.138 1.06-0.426 1.545-0.847 1.419-2.676 1.895-4.107 1.069 0 0-37.746-21.792-63.951-36.922 31.368 19.52 72.343 45.016 72.343 45.016 0.919 0.573 1.425 1.558 1.425 2.568 0 0.281-0.041 0.562-0.122 0.838h-7.486c-4.5-2.597-12.512-7.224-14.099-8.14 2.156 1.312 7.913 4.813 13.383 8.14h-12.718c-1.72-0.993-3.118-1.8-3.958-2.285 0.997 0.606 2.279 1.385 3.759 2.285h-26.381c-11.575-6.682-23.752-13.714-34.629-19.993 10.435 6.413 21.671 13.316 32.537 19.993h-28.242c-2.188-1.264-4.343-2.507-6.449-3.723 2.001 1.227 4.026 2.47 6.067 3.723z"/><path d="m56.5 248.88c-0.898-0.576-1.39-1.55-1.39-2.545 0-0.536 0.143-1.079 0.442-1.569 0.853-1.401 2.669-1.865 4.091-1.045 0 0 20.342 11.745 38.282 22.102h-15.029c-15.38-9.872-26.396-16.943-26.396-16.943"/><path d="m71.351 212.87c-0.933-0.568-1.45-1.563-1.45-2.582 0-0.524 0.138-1.056 0.424-1.539 0.845-1.423 2.677-1.902 4.109-1.075 0 0 54.253 31.322 90.888 52.474-34.621-21.036-87.046-52.887-87.046-52.887-0.936-0.568-1.452-1.564-1.452-2.584 0-0.525 0.135-1.056 0.421-1.537 0.844-1.426 2.677-1.905 4.11-1.077 0 0 55.716 32.166 110.43 63.756h-33.622c-41.33-25.208-86.813-52.949-86.813-52.949"/><path d="m59.774 241.16c-0.909-0.574-1.409-1.555-1.409-2.558 0-0.532 0.14-1.071 0.435-1.559 0.851-1.407 2.673-1.877 4.097-1.055 0 0 22.368 12.915 30.839 17.805-6.823-4.249-26.906-16.755-26.906-16.755-0.919-0.572-1.426-1.558-1.426-2.567 0-0.53 0.14-1.066 0.431-1.552 0.849-1.415 2.674-1.888 4.102-1.063 0 0 31.513 18.195 52.199 30.137-22.948-14.423-55.723-35.02-55.723-35.02-0.911-0.574-1.413-1.555-1.413-2.561 0-0.531 0.139-1.069 0.434-1.557 0.849-1.41 2.671-1.88 4.097-1.056 0 0 8.572 4.947 9.074 5.238-0.391-0.525-0.622-1.15-0.622-1.799 0-0.52 0.134-1.048 0.417-1.528 0.841-1.431 2.678-1.915 4.116-1.085 0 0 39.733 22.939 74.807 43.189h-58.488c-18.184-11.477-39.061-24.654-39.061-24.654"/></g></g></g></g></svg>
